# xmcd
#
# Track frame offsets:
#	150
#	2222
#	20182
#	36623
#	55130
#	70176
#	82562
#	92231
#	102419
#	113288
#	125468
#	139474
#	157465
#	176199
#	193429
#	212067
#	229272
#	248282
#	260380
#	274998
#	285616
#	298115
#
# Disc length: 4168 seconds
#
# Revision: 0
# Processed by: cddbd v1.5.2PL0 Copyright (c) Steve Scherf et al.
# Submitted via: dBpowerAMP V4.0
#
DISCID=53104616
DTITLE=Playalong for Flute - Blue Book - 21 Classics Hits - Backing Tracks
DYEAR=2003
DGENRE=Minus1
TTITLE0=Tuning Notes
TTITLE1=American Pie
TTITLE2=Desert Rose
TTITLE3=The Girl From Ipanema
TTITLE4=Guantanamera
TTITLE5=I Got You (I Fell Good)
TTITLE6=I Say A Little Prayer
TTITLE7=La Bamba
TTITLE8=Moonglow
TTITLE9=In The Midnight Hour
TTITLE10=One Note Samba
TTITLE11=Oye Como Va
TTITLE12=Pure Shores
TTITLE13=Reach
TTITLE14=Rise
TTITLE15=She's The One
TTITLE16=Slightly Out Of Tune
TTITLE17=(Sittin' On) The Dock of The Bay
TTITLE18=Straight No Chaser
TTITLE19=Sway (Quien Sera)
TTITLE20=Stand By Me
TTITLE21=Take The 'A' Train
EXTD=
EXTT0=
EXTT1=
EXTT2=
EXTT3=
EXTT4=
EXTT5=
EXTT6=
EXTT7=
EXTT8=
EXTT9=
EXTT10=
EXTT11=
EXTT12=
EXTT13=
EXTT14=
EXTT15=
EXTT16=
EXTT17=
EXTT18=
EXTT19=
EXTT20=
EXTT21=
PLAYORDER=
